<svg width="24" height="22" viewBox="0 0 24 22" fill="none" xmlns="http://www.w3.org/2000/svg">
<path d="M22.7253 0.175031C22.7066 0.179718 22.6878 0.186749 22.6691 0.193781C22.512 0.233624 22.3761 0.334406 22.2941 0.475031L10.0316 19.4875L1.59407 11.875C1.44642 11.6875 1.20032 11.6055 0.968292 11.6664C0.736261 11.7274 0.565167 11.9219 0.530011 12.1586C0.494855 12.3953 0.602667 12.6297 0.806573 12.7563L9.75032 20.8563C9.88157 20.9711 10.0574 21.0227 10.2308 20.9969C10.4042 20.9711 10.5566 20.8727 10.6503 20.725L23.3066 1.11253C23.4449 0.915656 23.4519 0.6555 23.3253 0.451594C23.1988 0.247687 22.962 0.139874 22.7253 0.175031Z" fill="#62E998"/>
<path d="M22.7253 0.175031C22.7066 0.179718 22.6878 0.186749 22.6691 0.193781C22.512 0.233624 22.3761 0.334406 22.2941 0.475031L10.0316 19.4875L1.59407 11.875C1.44642 11.6875 1.20032 11.6055 0.968292 11.6664C0.736261 11.7274 0.565167 11.9219 0.530011 12.1586C0.494855 12.3953 0.602667 12.6297 0.806573 12.7563L9.75032 20.8563C9.88157 20.9711 10.0574 21.0227 10.2308 20.9969C10.4042 20.9711 10.5566 20.8727 10.6503 20.725L23.3066 1.11253C23.4449 0.915656 23.4519 0.6555 23.3253 0.451594C23.1988 0.247687 22.962 0.139874 22.7253 0.175031Z" fill="black" fill-opacity="0.12"/>
</svg>
