<?xml version="1.0" encoding="utf-8"?>
<!-- Generator: Adobe Illustrator 23.0.3, SVG Export Plug-In . SVG Version: 6.00 Build 0)  -->
<svg version="1.1" id="Слой_1" xmlns="http://www.w3.org/2000/svg" xmlns:xlink="http://www.w3.org/1999/xlink" x="0px" y="0px"
	 width="576.9px" height="156.2px" viewBox="0 0 576.9 156.2" style="enable-background:new 0 0 576.9 156.2;" xml:space="preserve"
	>
<style type="text/css">
	.st0{fill:#FDFDFE;}
	.st1{fill:#EBEBEB;}
	.st2{fill:#4987D2;}
	.st3{fill:#4F4F4F;}
	.st4{fill:#FDFBFB;}
	.st5{fill:#E40808;}
	.st6{fill:#4484D0;}
	.st7{fill:#5286C5;}
	.st8{fill:#4684CE;}
	.st9{fill:#689BD9;}
	.st10{fill:#6B9DDA;}
	.st11{fill:#E30000;}
	.st12{fill:#FFFFFF;}
	.st13{font-family:'MyriadPro-Regular';}
	.st14{font-size:69px;}
	.st15{font-size:111.2546px;}
</style>
<g>
	<g>
		<path class="st0" d="M312.6,630.7c-1.7,0-3.3,0-5,0c-1-6.3-3.3-9.1-6.7-7.5c-3,1.5-6,2.3-9.2,3c-2.1,0.5-3.9,1.8-4.1,4.4
			c-104.9,0-209.9,0-314.8,0.1c-3.7,0-4.3-0.9-4.3-4.4c0.1-58.5,0.1-116.9,0-175.4c0-3.4,0.4-4.5,4.2-4.4
			c83.9,0.2,167.9,0.1,251.8,0.1c-3.5,5.1,0,9.3,1.9,13.7c0.5,1,1.3,1.5,2.4,1.1c1.3-0.5,1.7-1.5,1.1-2.8c-0.8-1.7-1.6-3.3-2.2-5
			c-0.3-0.9-0.4-2.1,0.8-2.6s1.9,0.4,2.3,1.3c0.7,1.7,1.3,3.4,2.1,5c0.5,1.2,1.1,2.7,2.9,2c2-0.7,1.5-2.2,0.8-3.7
			c-1.3-2.9-2.1-5.9-1-9c0.7,0,1.3,0,2,0c0.7,2.7,1.4,5.4,2.2,8.1c0.5,1.5,1.7,2.1,3.2,1.8c2-0.4,1.4-1.8,1-3.1
			c-0.7-2.2-1.7-4.3-1.4-6.7c1.3,0,2.7,0,4,0c0.2,1.1,0.4,2.2,0.7,3.3c1.1,4.5,4.3,3.5,7.4,2.7c3.1-0.8,5.5-2.1,4-6
			c103.7,0,207.3,0,311-0.1c3.4,0,4.1,0.7,4.1,4.1c-0.2,22.3-0.1,44.7-0.1,67c-1.7,0-3.9,0.1-3.7,2.3c0.1,2.4,0.8,5,3.7,5.7
			c0,33.7-0.1,67.3,0.1,101c0,3.4-0.7,4.1-4.1,4.1c-81.7-0.1-163.3-0.1-245-0.1c-0.7-2.9-1.1-5.8-2.1-8.6c-1.1-3.1-3.4-5.1-6.9-4.2
			c-1.8,0.5-4.9,1.2-4.4,3.1c0.8,3.2,3.1,0.2,4.8,0.1c0.4,0,0.8,0.3,1.8,0.7C315.3,624.5,310.2,625.7,312.6,630.7z M-12.4,578.7
			c-0.7,1.4-0.2,2.3,1,3c2.4,5.3,6.6,9.2,10.8,13c1.2,3,3.9,4.5,6.4,6c12.9,7.7,26.7,13.2,41.3,17c11,2.8,22,2.5,33.1,0.5
			c32.1-5.7,62.2-43.9,52.8-83.3c-2.1-9-6.6-17-9.1-25.8c-8.6-30-36.4-48.3-69.6-45.1c-4.3,0.4-8.6,1.4-12.9,1.5
			c-28.3,0.7-52.9,19.6-61.2,46.8c-4.5,14.7-2,29.4-1.1,44c0.4,7,2.5,13.7,5.9,19.9C-14.3,577.2-14.4,579.1-12.4,578.7L-12.4,578.7z
			 M356.8,562.9c-1.6,0.5-1.7-0.8-2.2-1.5c-3.8-5.7-7.5-11.4-11.2-17.1c-8.7-13.2-17.5-26.4-25.9-39.8c-3-4.7-7.2-2.8-10.7-2.6
			c-3.2,0.2-1.6,3.8-1.6,5.8c-0.1,23.3,0.1,46.7-0.2,70c0,4.4,1.9,4.5,5.1,4.3c2.9-0.2,5.7,0.9,5.6-4.2c-0.4-17.8-0.2-35.7-0.1-53.5
			c0-1.3-0.8-2.9,0.9-4.2c4.1,6.2,8.1,12.3,12.1,18.4c8.8,13.4,17.7,26.6,26.1,40.2c3,4.9,7.3,3.4,11,3c3.7-0.3,1.7-4.1,1.7-6.1
			c0.2-23,0-46,0.2-69c0.1-4.6-1.6-5.1-5.4-5c-3.6,0.1-5.6,0.1-5.6,4.9C356.9,525.3,356.8,544.1,356.8,562.9z M405.5,500.7
			c-2-0.1-4.8,0.3-7.6,0.9c-10,2.3-15.7,8.6-16.7,18.5c-1,9.4,3.5,16.8,12.9,20.8c4.3,1.8,8.7,3.3,13.1,4.9
			c4.1,1.5,8.2,2.8,11.6,5.6c3.9,3.3,5.3,7.5,4.3,12.5c-0.9,4.8-3.7,8.2-8.4,9.6c-9.5,2.9-18.1-1.4-21.7-10.7
			c-0.4-1-0.1-2.6-1.7-2.7c-3.1,0-7-1.4-9.1,0.6c-1.8,1.7,0.5,4.9,1.5,7.4c0.4,0.9,0.9,1.8,1.4,2.6c6.6,10.3,22.6,14.9,35.3,10.1
			c8.5-3.1,13.8-10.5,14.1-19.3c0.3-9.3-3.9-16.3-12.7-20.1c-4.5-2-9.3-3.6-14-5.3c-3.7-1.4-7.6-2.5-10.8-5
			c-6.7-5.3-6.3-15.8,0.6-20.1c6.8-4.2,18.1-2.3,21.5,4.9c2.4,5,5.6,4.9,9.8,5c3.6,0.1,3.7-1.2,2.8-4.1
			C428.6,506.9,419.3,500.9,405.5,500.7z M206.1,500.7c-2.7,0-5.3,0.2-7.9,0.8c-10.6,2.4-16.7,8.8-17.5,18.4
			c-0.8,10.1,3.6,17.2,13.6,21.4c4.1,1.7,8.4,3,12.6,4.6c4.1,1.5,8.2,2.8,11.5,5.8c6.5,5.7,5.6,17-1.7,21
			c-8.7,4.7-20.2,0.6-23.8-8.6c-1.3-3.3-7.3-5.8-10.4-3.7c-2.9,1.9-0.3,4.7,0.2,7c0.2,0.9,0.8,1.8,1.3,2.7
			c5.5,9.3,18.3,14.5,30.6,12.3c10.5-1.8,17.9-8.7,19-17.8c1.5-11.7-3-19.4-14.2-23.9c-6.3-2.6-12.8-4.5-19.1-7.2
			c-5.1-2.1-8.4-5.9-8.6-11.8c-0.1-5.9,3.1-10.4,8.6-11.9c7.7-2.1,15.8,0.2,18.6,6.7c2,4.5,4.8,4.3,8.5,4.5c4.8,0.3,4.8-1.6,3.4-5.2
			C227.2,506.3,218.6,501,206.1,500.7z M247.8,541.5c0,12.2,0.1,24.3-0.1,36.5c0,3,0.6,4,3.8,4c12.3-0.2,24.6-0.2,37,0
			c3.8,0.1,3.4-1.9,3.4-4.3c0-2.4,0.4-4.5-3.4-4.3c-8.3,0.3-16.7-0.1-25,0.2c-4,0.1-5.7-0.7-5.4-5.1c0.4-6.1,0.3-12.3,0-18.5
			c-0.1-3.4,0.8-4.7,4.4-4.5c7.1,0.3,14.3-0.1,21.5,0.1c3.3,0.1,4.6-0.6,4.7-4.3c0-3.7-1.6-4-4.4-3.9c-7.3,0.1-14.7-0.1-22,0.1
			c-2.9,0.1-4.2-0.7-4.1-3.9c0.2-6.5,0.2-13,0-19.5c-0.1-3,0.8-4.1,3.9-4c8.8,0.2,17.6-0.1,26.5,0.1c3.8,0.1,3.3-2.1,3.3-4.5
			s0.4-4.4-3.4-4.3c-12.3,0.3-24.6,0.2-37,0c-3.2,0-3.9,1-3.8,4C247.9,517.6,247.8,529.6,247.8,541.5z M448.4,541.8
			c0,12.2,0.1,24.3-0.1,36.5c0,2.8,0.7,3.7,3.6,3.7c12.2-0.1,24.3-0.2,36.5,0c3.4,0.1,4.1-1.1,4.1-4.3c0-3.2-0.8-4.3-4.2-4.3
			c-8.7,0.2-17.3-0.1-26,0.2c-3.1,0.1-4-0.9-3.9-3.9c0.2-6.8,0.2-13.7,0-20.5c-0.1-2.8,0.7-3.7,3.6-3.7c7.7,0.2,15.3-0.1,23,0.1
			c3.4,0.1,3.7-1.4,3.7-4.2s-0.5-4.2-3.8-4.1c-7.5,0.3-15,0-22.5,0.1c-2.8,0.1-4.2-0.4-4.1-3.7c0.3-6.7,0.2-13.3,0-20
			c-0.1-2.9,0.8-3.7,3.7-3.6c8.8,0.2,17.7-0.1,26.5,0.1c3.9,0.1,3.8-1.9,3.8-4.6c0.1-2.7-0.2-4.2-3.6-4.2c-12.3,0.2-24.7,0.2-37,0
			c-2.9,0-3.6,1-3.6,3.7C448.5,517.5,448.4,529.6,448.4,541.8z M521.6,545.7c0,10.5,0.3,21-0.1,31.4c-0.2,4.6,1.7,4.9,5.4,4.9
			c3.8,0,5.5-0.5,5.4-5c-0.3-20.6,0-41.3-0.2-61.9c0-4,1.2-5.2,5-4.9c4.8,0.3,9.7-0.1,14.5,0.1c4.1,0.2,2.8-2.6,3-4.7
			c0.2-2.3,0.3-4-3.1-4c-16.3,0.2-32.6,0.2-48.9,0c-3.6,0-3.6,1.7-3.6,4.3c0.1,2.4-0.4,4.7,3.4,4.5c4.8-0.3,9.7,0.2,14.5-0.2
			c4.2-0.3,4.9,1.3,4.8,5C521.5,525.4,521.6,535.5,521.6,545.7z M201,472.4c0.1,1-0.7,1.1-1.1,1.6c-1.1,1.2-4.9-0.1-3.7,2.6
			c1,2.3,3.9,1.1,6.1,0.1c3.1-1.5,4.2-3.9,3.1-6.9c-1.1-3.3-2.4-6.5-3.3-9.9c-0.2-0.7-0.9-1.7-1.5-1.8c-2.8-0.6-5.4,0.5-7.3,2.2
			c-1.8,1.6-3.6,3.7-2.1,6.5c1.2,2.2,1.7,5.2,5.3,5C198,471.7,199.8,471,201,472.4z M357.2,612.3c1.8-0.8,3.5-1.7,5.3-2.4
			c1.2-0.5,2.2-0.8,1.4-2.4c-1.4-2.7-3.1-5.4-6.8-4.7c-3.1,0.6-5.5,2-5.6,5.8c-0.3,7.1,3.9,9.9,11,7.2c1.4-0.5,3.2-0.8,2.4-2.9
			c-0.7-1.7-2.2-0.9-3.4-0.3C360.2,613.3,358.7,614.5,357.2,612.3z M390.8,596c-0.2,0.2-0.4,0.6-0.6,0.6c-2.9,0.4-5.2,1.9-5.3,4.9
			c-0.1,1.9,1,4,3.5,4.2c3.5,0.3,7.4-0.5,8.6-3.6c1.3-3.3-1.9-6.4-3.4-9.4c-1.1-2.2-3.7-1.9-5.8-0.8c-1.3,0.7-4.1,0.2-3.6,2.4
			c0.4,2.2,2.5,1.3,4.1,0.8C389.4,594.6,390.4,594.7,390.8,596z M207.6,459.7c0.2,3.6,0.4,7.1,5.8,7c5.1-0.1,7.2-1.7,7.3-5.9
			c0.1-4.3-3.2-8.2-6.9-8.1C209.4,452.8,207.6,455.4,207.6,459.7z M188.6,471.8c0-3.8-3.1-7-6.8-7.1c-4.4-0.1-7.1,2.3-7.1,6.3
			c-0.1,4.3,3.2,7.8,7.2,7.7C186,478.6,188.6,476,188.6,471.8z M346,621.6c1.4-0.7,4.2-0.1,4.4-2.7c0.2-3.3-2.3-1-3.5-1.3
			c-2.2-0.7-4.3-3-3-4.2c5.5-5.2,2.3-6.1-2.7-6.9c-0.7-0.1-1.3-1.3-2.4-0.7c-1,0.6-1.1,1.5-0.8,2.6c1,3.7,1.8,7.4,3.9,10.7
			C342.7,620.5,343.8,621.7,346,621.6z M330,617c0.8-0.6,1.3-1,1.8-1.2c2.4-1,2.7-3.1,0.5-3.7c-3-0.8-5.3,1.5-6.3,4.3
			c-0.9,2.5,0.2,4.2,3.1,4.3c1.5,0.1,3.4,0.1,3.7,1.6c0.3,1.4-1.4,2-2.7,2.4c-0.9,0.3-1.4,0.8-1.2,1.8c0.3,1,1.3,1.2,2,0.9
			c2.7-1.4,6.6-1.8,6.6-5.8c0-3.5-3.2-3.7-5.9-4C331.2,617.6,330.8,617.3,330,617z M174.4,480.7c-0.3-0.4-0.5-1.3-1-1.4
			c-3.3-0.9-3.2-3.8-3.9-6.3c-0.7-2.2-1.5-4.4-2.7-6.4c-0.6-1-0.9-3.4-3.1-2.2c-1.4,0.8-1,2.2-0.5,3.5c1.2,3.4,2.3,6.9,3.4,10.3
			c0.6,1.9,1.9,3.2,3.5,4C171.8,483.1,173.4,482.9,174.4,480.7z M374.4,599.6c0-1.1-0.4-1.6-1.1-1.8c-1.9-0.5-3.6,0.2-5.2,1.2
			c-1.5,1-1.7,2.5-1.2,4c0.9,2.3,1.9,4.6,2.9,6.8c0.4,0.9,0.5,2.6,2.2,2c1.6-0.5,1.8-1.9,1.4-3.3c-0.7-2.2-2.3-4.1-1.6-6.6
			C372.2,600.5,374.3,600.9,374.4,599.6z M405.9,598.7c-1.1-3.4-2.2-6.9-3.4-10.3c-0.3-0.8-1-1.4-1.9-1.1c-0.8,0.3-1.7,0.6-1.5,1.6
			c0.6,3.9,1.5,7.7,4,11c0.6,0.8,1.5,0.7,2.2,0.3C405.8,600,406.2,599.4,405.9,598.7z M382.3,608.6c1-0.2,1.9-0.7,1.9-1.8
			c-0.1-1.7-1.4-2-2.8-2c-1.2,0-1.8,0.7-1.6,1.9C380.1,607.9,381,608.6,382.3,608.6z M-23.5,552.4c0-1.4-1-1.7-2-1.7
			c-1.2,0.1-2.4,0.3-2.1,1.9c0.2,1,0.7,1.9,1.9,1.8C-24.4,554.4-23.7,553.6-23.5,552.4z"/>
		<path class="st1" d="M235.6,446.7c-1.1,3.2-0.3,6.2,1,9c0.7,1.5,1.2,2.9-0.8,3.7c-1.7,0.7-2.3-0.9-2.9-2c-0.8-1.6-1.4-3.4-2.1-5
			c-0.4-0.9-1.1-1.8-2.3-1.3s-1.1,1.7-0.8,2.6c0.6,1.7,1.5,3.3,2.2,5c0.6,1.3,0.2,2.3-1.1,2.8c-1.1,0.5-2,0-2.4-1.1
			c-1.9-4.4-5.3-8.5-1.9-13.7C228.3,446.7,232,446.7,235.6,446.7z"/>
		<path class="st1" d="M312.6,630.7c-2.4-5,2.6-6.2,5.2-8.9c-1-0.4-1.4-0.7-1.8-0.7c-1.7,0.1-4,3.1-4.8-0.1
			c-0.5-1.9,2.7-2.6,4.4-3.1c3.5-0.9,5.8,1,6.9,4.2c1,2.8,1.4,5.7,2.1,8.6C320.6,630.7,316.6,630.7,312.6,630.7z"/>
		<path class="st1" d="M287.6,630.7c0.2-2.6,2-3.9,4.1-4.4c3.2-0.7,6.2-1.6,9.2-3c3.4-1.6,5.6,1.2,6.7,7.5
			C301,630.7,294.3,630.7,287.6,630.7z"/>
		<path class="st1" d="M258.6,446.7c1.5,3.9-0.9,5.2-4,6c-3.1,0.8-6.2,1.9-7.4-2.7c-0.3-1.1-0.4-2.2-0.7-3.3
			C250.6,446.7,254.6,446.7,258.6,446.7z"/>
		<path class="st1" d="M242.6,446.7c-0.3,2.4,0.7,4.6,1.4,6.7c0.4,1.3,1,2.7-1,3.1c-1.5,0.3-2.7-0.3-3.2-1.8
			c-0.8-2.7-1.5-5.4-2.2-8.1C239.3,446.7,241,446.7,242.6,446.7z"/>
		<path class="st1" d="M573.6,525.7c-3-0.8-3.6-3.4-3.7-5.7c-0.1-2.2,2-2.2,3.7-2.3C573.6,520.4,573.6,523,573.6,525.7z"/>
		<path class="st2" d="M-12.4,578.7c-2,0.3-1.9-1.5-2.5-2.5c-3.4-6.2-5.5-12.9-5.9-19.9c-0.9-14.7-3.3-29.4,1.1-44
			c8.3-27.1,32.9-46.1,61.2-46.8c4.3-0.1,8.6-1.1,12.9-1.5c33.1-3.2,61,15.2,69.6,45.1c2.5,8.7,7,16.8,9.1,25.8
			c9.3,39.3-20.8,77.5-52.8,83.3c-11.1,2-22.1,2.3-33.1-0.5c-14.6-3.7-28.4-9.2-41.3-17c-2.5-1.5-5.2-3-6.4-6c1.4-0.5,2.4,2,4.2,0.1
			c-8.2-8-13.8-17.8-19-27.9C-15.9,571.4-12.6,574.6-12.4,578.7z M18.3,482.4c-0.8,0.2-1.5,0.4-1.8,1.2c-0.2,0.3-0.4,0.5-0.6,0.8
			c0.3-0.2,0.6-0.3,0.9-0.5c0.8,0,1.5-0.3,1.9-1.1c0.4-0.3,0.8-0.5,1.2-0.8c12.4-6.4,25.4-10.6,39.6-9.6c-14.8-3.3-28.3-0.7-40,9.1
			C19.1,481.9,18.7,482.1,18.3,482.4z M118.8,560.7c-0.2,0.5-0.5,1-0.7,1.5c-9.9,18.5-23.8,33-43.7,42.3c21.2-1.7,39.9-15,46.4-39.7
			c2.2-5.9,3.4-12,3-18.4c-1.1,3.4-2.1,6.8-3.2,10.3C119.5,557.8,119.1,559.2,118.8,560.7z M-8.6,538.7c-0.6,9.2,0.8,18.1,5.3,26.1
			c12,21.4,29.3,35.6,54.5,37.9c20.2,1.9,34.8-9,48.2-22.1c13.8-13.3,20.4-29.2,18.2-48.6c-1.1-9.3-4.7-17.6-8.4-26
			c0.1-0.1,0.2-0.3,0.3-0.4c7.6,9.3,9.3,20.7,11.2,32c4.8-38.3-20.6-68.7-51.2-68.6c12.4,5.1,23.5,10.9,31.2,21.5
			c-0.2,0.2-0.4,0.4-0.6,0.6c-2-1-4.4-0.1-6.5-1.8c-11.9-9.5-25.6-13.5-40.8-13.1C21.6,477-6.1,502.4-8.3,532.6
			C-8.6,534.7-9.8,536.6-8.6,538.7z M-7.4,514.3c-5.1,6.7-6,11.5-4.3,21.7C-10.7,527.9-9.3,521.1-7.4,514.3z"/>
		<path class="st3" d="M356.8,562.9c0-18.8,0.2-37.6-0.1-56.5c-0.1-4.8,2-4.8,5.6-4.9c3.8-0.1,5.5,0.4,5.4,5c-0.3,23-0.1,46-0.2,69
			c0,2,2,5.8-1.7,6.1c-3.7,0.3-8,1.9-11-3c-8.4-13.6-17.4-26.8-26.1-40.2c-4-6.1-8-12.2-12.1-18.4c-1.6,1.2-0.9,2.8-0.9,4.2
			c-0.1,17.8-0.3,35.7,0.1,53.5c0.1,5.1-2.8,4-5.6,4.2c-3.1,0.2-5.1,0.1-5.1-4.3c0.2-23.3,0.1-46.7,0.2-70c0-2-1.5-5.5,1.6-5.8
			c3.5-0.2,7.7-2.1,10.7,2.6c8.4,13.4,17.2,26.5,25.9,39.8c3.7,5.7,7.5,11.4,11.2,17.1C355,562,355.2,563.4,356.8,562.9z"/>
		<path class="st3" d="M405.5,500.7c13.8,0.2,23.1,6.2,26.3,16.2c0.9,2.9,0.8,4.2-2.8,4.1c-4.2-0.1-7.4,0-9.8-5
			c-3.4-7.2-14.7-9.1-21.5-4.9c-6.9,4.3-7.3,14.8-0.6,20.1c3.2,2.5,7.1,3.6,10.8,5c4.7,1.7,9.4,3.3,14,5.3
			c8.7,3.9,13,10.9,12.7,20.1c-0.3,8.9-5.7,16.2-14.1,19.3c-12.8,4.7-28.7,0.2-35.3-10.1c-0.5-0.8-1.1-1.7-1.4-2.6
			c-1-2.4-3.2-5.7-1.5-7.4c2.2-2,6-0.6,9.1-0.6c1.6,0,1.3,1.7,1.7,2.7c3.6,9.3,12.3,13.6,21.7,10.7c4.7-1.4,7.5-4.8,8.4-9.6
			c0.9-5-0.5-9.2-4.3-12.5c-3.4-2.9-7.5-4.2-11.6-5.6c-4.4-1.6-8.8-3.1-13.1-4.9c-9.4-4-13.9-11.3-12.9-20.8
			c1-9.9,6.7-16.2,16.7-18.5C400.7,501,403.5,500.6,405.5,500.7z"/>
		<path class="st3" d="M206.1,500.7c12.4,0.3,21.1,5.6,24.8,15.1c1.4,3.6,1.4,5.5-3.4,5.2c-3.7-0.2-6.5-0.1-8.5-4.5
			c-2.9-6.5-10.9-8.8-18.6-6.7c-5.5,1.5-8.7,6-8.6,11.9c0.1,5.9,3.5,9.7,8.6,11.8c6.3,2.6,12.8,4.6,19.1,7.2
			c11.2,4.5,15.6,12.2,14.2,23.9c-1.1,9.1-8.5,16-19,17.8c-12.3,2.1-25.1-3-30.6-12.3c-0.5-0.9-1.1-1.7-1.3-2.7
			c-0.5-2.4-3.1-5.1-0.2-7c3.1-2.1,9.1,0.4,10.4,3.7c3.6,9.1,15.2,13.3,23.8,8.6c7.3-4,8.2-15.2,1.7-21c-3.3-2.9-7.5-4.3-11.5-5.8
			c-4.2-1.5-8.5-2.8-12.6-4.6c-10-4.2-14.5-11.3-13.6-21.4c0.8-9.7,6.9-16,17.5-18.4C200.8,500.8,203.5,500.7,206.1,500.7z"/>
		<path class="st3" d="M247.8,541.5c0-12,0.1-24-0.1-36c0-3,0.6-4,3.8-4c12.3,0.2,24.6,0.2,37,0c3.8-0.1,3.4,1.9,3.4,4.3
			c0,2.3,0.5,4.6-3.3,4.5c-8.8-0.3-17.6,0-26.5-0.1c-3.1-0.1-4,1-3.9,4c0.2,6.5,0.2,13,0,19.5c-0.1,3.2,1.1,3.9,4.1,3.9
			c7.3-0.2,14.6,0,22-0.1c2.9-0.1,4.5,0.2,4.4,3.9c0,3.7-1.4,4.4-4.7,4.3c-7.2-0.2-14.3,0.1-21.5-0.1c-3.6-0.1-4.5,1.1-4.4,4.5
			c0.3,6.1,0.4,12.3,0,18.5c-0.3,4.4,1.4,5.2,5.4,5.1c8.3-0.3,16.7,0.1,25-0.2c3.8-0.1,3.4,2,3.4,4.3c0,2.4,0.4,4.4-3.4,4.3
			c-12.3-0.3-24.6-0.2-37,0c-3.2,0-3.9-1-3.8-4C247.9,565.9,247.8,553.7,247.8,541.5z"/>
		<path class="st3" d="M448.4,541.8c0-12.2,0.1-24.3-0.1-36.5c0-2.7,0.6-3.7,3.6-3.7c12.3,0.2,24.7,0.2,37,0
			c3.5-0.1,3.7,1.5,3.6,4.2s0,4.7-3.8,4.6c-8.8-0.3-17.7,0-26.5-0.1c-2.8-0.1-3.7,0.8-3.7,3.6c0.2,6.7,0.3,13.3,0,20
			c-0.1,3.3,1.2,3.8,4.1,3.7c7.5-0.2,15,0.1,22.5-0.1c3.3-0.1,3.8,1.2,3.8,4.1c0,2.8-0.3,4.3-3.7,4.2c-7.7-0.3-15.3,0-23-0.1
			c-2.9-0.1-3.7,0.9-3.6,3.7c0.2,6.8,0.2,13.7,0,20.5c-0.1,3,0.7,4,3.9,3.9c8.7-0.2,17.3,0.1,26-0.2c3.4-0.1,4.2,1.1,4.2,4.3
			c0,3.1-0.7,4.3-4.1,4.3c-12.2-0.2-24.3-0.2-36.5,0c-2.9,0-3.6-0.9-3.6-3.7C448.5,566.1,448.4,554,448.4,541.8z"/>
		<path class="st3" d="M521.6,545.7c0-10.2-0.2-20.3,0.1-30.5c0.1-3.7-0.6-5.4-4.8-5c-4.8,0.4-9.7-0.1-14.5,0.2
			c-3.8,0.2-3.3-2.1-3.4-4.5c-0.1-2.6,0-4.3,3.6-4.3c16.3,0.2,32.6,0.2,48.9,0c3.4,0,3.3,1.7,3.1,4c-0.2,2.1,1.1,4.9-3,4.7
			c-4.8-0.2-9.7,0.2-14.5-0.1c-3.9-0.3-5.1,0.9-5,4.9c0.2,20.6-0.1,41.3,0.2,61.9c0.1,4.5-1.6,5.1-5.4,5c-3.7,0-5.6-0.3-5.4-4.9
			C521.9,566.7,521.6,556.2,521.6,545.7z"/>
		<path class="st1" d="M201,472.4c-1.2-1.4-3-0.7-4.5-0.7c-3.6,0.1-4.1-2.8-5.3-5c-1.5-2.9,0.3-5,2.1-6.5c2-1.7,4.6-2.7,7.3-2.2
			c0.6,0.1,1.3,1.1,1.5,1.8c0.8,3.4,2.2,6.6,3.3,9.9c1,3-0.1,5.4-3.1,6.9c-2.2,1.1-5,2.3-6.1-0.1c-1.2-2.6,2.6-1.3,3.7-2.6
			C200.3,473.6,201.1,473.5,201,472.4z M197.2,461.8c-1.7,0.2-2.4,1.2-2.5,2.7c-0.1,1.9,1,3.3,2.6,3.8c1.3,0.4,2.3-0.8,2.1-2
			C199.2,464.6,199.1,462.6,197.2,461.8z"/>
		<path class="st1" d="M357.2,612.3c1.5,2.3,3,1.1,4.4,0.4c1.2-0.5,2.7-1.4,3.4,0.3c0.8,2-1,2.3-2.4,2.9c-7.2,2.7-11.4-0.1-11-7.2
			c0.2-3.8,2.6-5.2,5.6-5.8c3.6-0.7,5.3,1.9,6.8,4.7c0.8,1.6-0.2,1.9-1.4,2.4C360.8,610.5,359,611.4,357.2,612.3z"/>
		<path class="st1" d="M390.8,596c-0.5-1.2-1.5-1.3-2.5-1c-1.6,0.5-3.7,1.5-4.1-0.8c-0.4-2.2,2.3-1.7,3.6-2.4
			c2.1-1.1,4.7-1.3,5.8,0.8c1.5,3,4.7,6.2,3.4,9.4c-1.2,3.1-5.1,3.9-8.6,3.6c-2.5-0.2-3.6-2.3-3.5-4.2c0.1-3,2.4-4.5,5.3-4.9
			C390.5,596.5,390.6,596.2,390.8,596z"/>
		<path class="st1" d="M207.6,459.7c0-4.4,1.8-6.9,6.1-7c3.7-0.1,7,3.8,6.9,8.1c-0.1,4.3-2.2,5.8-7.3,5.9
			C208,466.9,207.7,463.3,207.6,459.7z M211.6,460.1c0.1,1.8,0.4,3.5,2.6,3.4c1.5,0,2.6-1.2,2.2-2.6c-0.4-1.6-0.2-4-2.8-4
			C211.4,456.8,211.7,458.6,211.6,460.1z"/>
		<path class="st1" d="M188.6,471.8c0,4.2-2.6,6.9-6.7,6.9c-4,0.1-7.3-3.4-7.2-7.7c0.1-4,2.8-6.4,7.1-6.3
			C185.5,464.8,188.6,468,188.6,471.8z M183.6,471.9c0-1.8,0-3.9-2.4-4c-2.1-0.1-2.6,1.6-2.5,3.4s0.3,4,2.5,4.1
			C183.3,475.6,183.6,473.7,183.6,471.9z"/>
		<path class="st1" d="M-12.4,578.7c-0.2-4.1-3.5-7.4-3-11.8c5.3,10.1,10.8,19.9,19,27.9c-1.8,1.8-2.8-0.6-4.2-0.1
			c-4.3-3.8-8.4-7.7-10.8-13C-11.6,580.6-10.7,579.2-12.4,578.7L-12.4,578.7z"/>
		<path class="st1" d="M346,621.6c-2.2,0.1-3.3-1.1-4.2-2.6c-2-3.3-2.8-7-3.9-10.7c-0.3-1-0.3-1.9,0.8-2.6c1.1-0.7,1.7,0.5,2.4,0.7
			c5.1,0.8,8.2,1.7,2.7,6.9c-1.3,1.2,0.9,3.5,3,4.2c1.2,0.4,3.8-2,3.5,1.3C350.3,621.5,347.4,620.9,346,621.6z"/>
		<path class="st1" d="M330,617c0.8,0.3,1.2,0.6,1.6,0.7c2.7,0.3,5.8,0.5,5.9,4c0.1,4-3.9,4.4-6.6,5.8c-0.7,0.4-1.7,0.2-2-0.9
			c-0.3-1,0.3-1.5,1.2-1.8c1.3-0.4,3-1,2.7-2.4c-0.3-1.6-2.3-1.6-3.7-1.6c-2.9-0.1-4-1.8-3.1-4.3c1-2.9,3.3-5.1,6.3-4.3
			c2.2,0.6,1.9,2.7-0.5,3.7C331.2,616,330.8,616.4,330,617z"/>
		<path class="st1" d="M174.4,480.7c-1,2.2-2.6,2.4-4.2,1.6c-1.6-0.8-2.9-2.1-3.5-4c-1.1-3.5-2.2-6.9-3.4-10.3
			c-0.5-1.3-0.9-2.8,0.5-3.5c2.2-1.2,2.5,1.2,3.1,2.2c1.2,2,2,4.2,2.7,6.4c0.7,2.5,0.6,5.3,3.9,6.3
			C173.8,479.4,174.1,480.2,174.4,480.7z"/>
		<path class="st1" d="M374.4,599.6c-0.1,1.3-2.2,0.9-2.6,2.3c-0.7,2.5,1,4.5,1.6,6.6c0.4,1.4,0.2,2.7-1.4,3.3
			c-1.7,0.5-1.8-1.1-2.2-2c-1-2.2-2-4.5-2.9-6.8c-0.6-1.5-0.3-3,1.2-4c1.6-1,3.3-1.7,5.2-1.2C374,598,374.4,598.5,374.4,599.6z"/>
		<path class="st1" d="M405.9,598.7c0.4,0.7-0.1,1.2-0.7,1.6c-0.8,0.4-1.7,0.5-2.2-0.3c-2.4-3.2-3.4-7-4-11c-0.1-1,0.8-1.4,1.5-1.6
			c1-0.3,1.6,0.3,1.9,1.1C403.6,591.9,404.7,595.3,405.9,598.7z"/>
		<path class="st1" d="M382.3,608.6c-1.4,0-2.2-0.6-2.5-1.9c-0.2-1.2,0.4-1.8,1.6-1.9c1.4,0,2.7,0.3,2.8,2
			C384.3,607.9,383.3,608.4,382.3,608.6z"/>
		<path class="st1" d="M-23.5,552.4c-0.2,1.2-0.9,2-2.2,2.1c-1.2,0.1-1.8-0.8-1.9-1.8c-0.3-1.6,1-1.9,2.1-1.9
			C-24.5,550.7-23.6,551-23.5,552.4z"/>
		<path class="st2" d="M-12.4,578.7c1.7,0.5,0.9,1.9,1,3C-12.6,581-13.1,580-12.4,578.7z"/>
		<path class="st4" d="M-8.3,532.7c2.2-30.2,29.9-55.6,61.1-56.4c15.2-0.4,28.9,3.5,40.8,13.1c2.1,1.7,4.5,0.8,6.5,1.8
			c0.4,0.4,0.8,0.5,1.2,0c0,0-0.4-0.4-0.6-0.6C93,480,82,474.2,69.5,469.1c30.7-0.2,56,30.3,51.2,68.6c-1.8-11.4-3.6-22.7-11.2-32
			c1.3-2.3,0.5-3.2-2-3c-0.1-0.8-0.2-1.6-1.1-1.9c-0.2-0.1-0.7,0.2-0.6,0.3c0.1,1,0.5,1.8,1.7,1.8c-0.3,1.6,0.7,2.5,1.8,3.3
			c3.7,8.4,7.3,16.7,8.4,26c2.2,19.4-4.4,35.2-18.2,48.6c-13.5,13.1-28.1,23.9-48.2,22.1C26.1,600.6,8.7,586.4-3.2,565
			c-4.5-8-5.9-16.9-5.3-26.1c1.8,1,1.9,3,2.5,4.6c0.6,1.4,1.4,2.9,3.2,2.2c2.3-0.8,1-2.3,0.5-3.6c-0.9-2.1-2.1-4-2.2-6.5
			C-4.5,533.1-6.3,532.7-8.3,532.7z M104.3,499c0.3,0.2,0.7,0.4,1,0.6c0.3-0.6-0.1-0.8-0.5-1c-0.3-0.4-0.6-0.7-0.9-1.1
			c-0.2-0.4-0.4-0.9-0.9-0.5c-0.1,0.1,0.2,0.7,0.4,1.1C103.6,498.4,103.9,498.7,104.3,499z M61.5,536.1c-0.7-0.5-1.2-0.9-1.8-1.2
			c-2.2-1.3-4.2-3-7.1-0.8c-2.7,2-5.4,3.2-4.9,7.5c0.6,4.9,0.1,10,0.1,15c0.1,4.6,6.1,8.3,10.2,6.3c18.6-9,18.6-9,18.2-29.5
			c0-0.2,0-0.3,0-0.5c0.4-2.3-0.7-3.5-2.7-4.7c-17.7-10.7-17.7-10.7-35.5-0.1c-2.2,1.3-2.9,2.7-2.9,5.1c0.1,10.3,0.1,20.7,0,31
			c0,2.3,0.7,3.5,2.7,4.6c5,2.6,10,5.3,14.8,8.3c2.4,1.5,4,1.2,6.3-0.1c8.9-5.2,17.9-10.3,26.9-15.2c2.2-1.2,3-2.5,3-5
			c-0.1-10.3-0.1-20.7,0-31c0-2.2-0.5-3.6-2.6-4.8c-9.3-5.1-18.6-10.4-27.8-15.7c-2-1.2-3.4-1.1-5.4,0c-9,5.3-18.1,10.5-27.3,15.5
			c-2.5,1.3-3.1,2.9-3,5.5c0.1,9.7,0.3,19.3-0.1,29c-0.2,4.6,1.7,6.6,6.3,7.5c0-11.1,0.1-22.1-0.1-33c0-2.4,0.5-3.9,2.8-5.1
			c7.2-3.9,14.2-7.9,21.2-12.1c1.9-1.1,3.4-1.3,5.5-0.1c7.1,4.2,14.4,8.4,21.7,12.3c2.2,1.2,2.5,2.6,2.5,4.8c-0.1,7.7-0.1,15.3,0,23
			c0.1,2.6-0.6,4.1-3.1,5.4c-6.6,3.5-13.2,7.1-19.5,11.1c-3.1,1.9-5.3,1.5-8.6,0.2c-8.1-3.2-11.7-8.3-9.9-17
			c0.4-2.1,0.1-4.3,0.1-6.5c0-12.7,0-12.7,11.1-18.8c0.3-0.2,0.6-0.3,0.9-0.5c1.4-1,2.6-0.9,4.1-0.1c11.9,5.6,12.7,6.7,12.2,19.7
			c0,0.3,0,0.7,0,1c0.2,1.6-0.7,2.4-2,3.1c-3.5,1.9-6.9,4-10.4,6c-1.4,0.8-3.1,1.5-3.2-1c-0.2-4.5-0.5-9.1,0.2-13.4
			C55,538.5,59.3,538.5,61.5,536.1z"/>
		<path class="st4" d="M120.8,564.8c-6.4,24.6-25.2,38-46.4,39.7c19.9-9.3,33.7-23.8,43.7-42.3c0.2,0.2,0.4,0.3,0.6,0.5
			C118.7,564,119.3,564.7,120.8,564.8L120.8,564.8z"/>
		<path class="st1" d="M19.5,481.6c11.7-9.9,25.2-12.4,40-9.1c-14.2-1-27.2,3.2-39.6,9.5C19.8,481.8,19.6,481.7,19.5,481.6z"/>
		<path class="st1" d="M-8.3,532.7c2,0,3.8,0.4,3.8,2.8c0,2.4,1.3,4.4,2.2,6.5c0.5,1.3,1.8,2.8-0.5,3.6c-1.8,0.6-2.7-0.8-3.2-2.2
			c-0.7-1.6-0.8-3.6-2.5-4.6C-9.8,536.6-8.6,534.7-8.3,532.7z"/>
		<path class="st4" d="M-7.4,514.3c-1.9,6.8-3.3,13.6-4.3,21.7C-13.4,525.8-12.4,521-7.4,514.3z"/>
		<path class="st4" d="M120.7,556.7c1.1-3.4,2.1-6.8,3.2-10.3c0.3,6.4-0.8,12.5-3,18.4l-0.2-0.2c0-1.3-0.7-1.9-2-2
			c-0.2-0.2-0.4-0.3-0.6-0.5c0.2-0.5,0.5-1,0.7-1.5C121.1,560.2,122.6,559.3,120.7,556.7z"/>
		<path class="st1" d="M120.7,556.7c1.9,2.5,0.4,3.4-1.9,4C119.1,559.2,119.5,557.8,120.7,556.7z"/>
		<path class="st1" d="M16.6,483.6c0.3-0.9,1-1,1.8-1.2c0.1,0.1,0.3,0.2,0.4,0.4c-0.4,0.8-1.1,1.1-1.9,1.1L16.6,483.6z"/>
		<path class="st1" d="M18.3,482.4c0.4-0.3,0.8-0.6,1.2-0.9c0.1,0.1,0.3,0.3,0.4,0.4c-0.4,0.3-0.8,0.5-1.2,0.8
			C18.6,482.7,18.5,482.5,18.3,482.4z"/>
		<path class="st1" d="M16.8,483.9c-0.3,0.2-0.6,0.3-0.9,0.5c0.2-0.3,0.4-0.5,0.6-0.8C16.6,483.6,16.8,483.9,16.8,483.9z"/>
		<path class="st4" d="M197.2,461.8c1.9,0.8,2,2.8,2.2,4.4c0.2,1.3-0.8,2.4-2.1,2c-1.7-0.5-2.7-1.9-2.6-3.8
			C194.8,463,195.5,462.1,197.2,461.8z"/>
		<path class="st0" d="M211.6,460c0.1-1.4-0.3-3.3,2-3.2c2.6,0.1,2.3,2.5,2.8,4c0.4,1.5-0.6,2.6-2.2,2.6
			C212,463.5,211.7,461.8,211.6,460z"/>
		<path class="st4" d="M183.6,471.9c0,1.7-0.3,3.7-2.4,3.5c-2.2-0.2-2.4-2.3-2.5-4.1c-0.1-1.8,0.4-3.5,2.5-3.4
			C183.6,468,183.6,470.1,183.6,471.9z"/>
		<path class="st5" d="M61.5,536.1c-2.2,2.4-6.5,2.4-7,5.5c-0.7,4.4-0.4,9-0.2,13.4c0.1,2.5,1.8,1.8,3.2,1c3.5-2,6.9-4,10.4-6
			c1.3-0.7,2.1-1.5,2-3.1c0-0.3,0-0.7,0-1c0.5-13-0.2-14.1-12.2-19.7c-1.6-0.7-2.8-0.9-4.1,0.1c-0.3,0.2-0.6,0.3-0.9,0.5
			c-11.1,6.1-11.1,6.1-11.1,18.8c0,2.2,0.4,4.4-0.1,6.5c-1.7,8.7,1.9,13.8,9.9,17c3.3,1.3,5.5,1.8,8.6-0.2c6.3-4,12.9-7.6,19.5-11.1
			c2.5-1.3,3.1-2.8,3.1-5.4c-0.2-7.7-0.1-15.3,0-23c0-2.1-0.4-3.6-2.5-4.8c-7.3-3.9-14.5-8.1-21.7-12.3c-2-1.2-3.5-1-5.5,0.1
			c-7,4.1-14.1,8.2-21.2,12.1c-2.3,1.2-2.8,2.7-2.8,5.1c0.1,10.9,0.1,21.9,0.1,33c-4.6-0.9-6.5-2.9-6.3-7.5c0.4-9.6,0.2-19.3,0.1-29
			c0-2.6,0.5-4.2,3-5.5c9.2-5,18.3-10.2,27.3-15.5c2-1.2,3.4-1.2,5.4,0c9.2,5.4,18.4,10.6,27.8,15.7c2.1,1.1,2.6,2.6,2.6,4.8
			c-0.1,10.3-0.1,20.7,0,31c0,2.5-0.8,3.9-3,5c-9,5-18,10-26.9,15.2c-2.2,1.3-3.9,1.6-6.3,0.1c-4.8-3-9.8-5.7-14.8-8.3
			c-2-1.1-2.8-2.3-2.7-4.6c0.1-10.3,0.1-20.7,0-31c0-2.5,0.7-3.9,2.9-5.1c17.9-10.6,17.8-10.6,35.5,0.1c2,1.2,3.1,2.4,2.7,4.7
			c0,0.2,0,0.3,0,0.5c0.4,20.6,0.4,20.6-18.2,29.5c-4.1,2-10.1-1.7-10.2-6.3c-0.1-5,0.4-10-0.1-15c-0.5-4.3,2.2-5.5,4.9-7.5
			c3-2.2,4.9-0.5,7.1,0.8C60.3,535.2,60.8,535.6,61.5,536.1z"/>
		<path class="st2" d="M109.3,506.1c-1.1-0.8-2.1-1.7-1.8-3.3l0.1-0.1c2.5-0.3,3.3,0.7,2,3C109.5,505.8,109.4,505.9,109.3,506.1z"/>
		<path class="st2" d="M107.6,502.8c-1.2,0-1.6-0.7-1.7-1.8c0-0.1,0.5-0.3,0.6-0.3C107.4,501.1,107.5,501.9,107.6,502.8
			C107.6,502.7,107.6,502.8,107.6,502.8z"/>
		<path class="st2" d="M103.8,497.5c0.3,0.4,0.6,0.7,0.9,1.1c-0.2,0.2-0.3,0.3-0.5,0.5c-0.3-0.3-0.7-0.6-1-1
			C103.4,497.9,103.6,497.7,103.8,497.5z"/>
		<path class="st2" d="M103.3,498.1c-0.1-0.4-0.5-1-0.4-1.1c0.5-0.4,0.7,0.1,0.9,0.5C103.6,497.7,103.4,497.9,103.3,498.1z"/>
		<path class="st2" d="M100.7,490.6c0.2,0.2,0.7,0.6,0.6,0.6c-0.4,0.5-0.8,0.4-1.2,0C100.3,491,100.5,490.8,100.7,490.6z"/>
		<path class="st2" d="M104.8,498.6c0.5,0.2,0.8,0.5,0.5,1c-0.3-0.2-0.7-0.4-1-0.6C104.4,498.9,104.6,498.7,104.8,498.6z"/>
		<path class="st1" d="M118.6,562.7c1.3,0,2,0.6,2,2C119.2,564.7,118.6,564,118.6,562.7z"/>
	</g>
</g>
<text transform="matrix(1 0 0 1 302.1195 270.0318)" class="st13 st14" style="fill:#383838;">нсерные </text>
<text transform="matrix(1 0 0 1 176.0716 311.4103)" class="st13 st15" style="fill:#383838;">СЕ</text>
<g>
	<text transform="matrix(1 0 0 1 306.6513 311.4099)" class="st13 st14" style="fill:#383838;">ти</text>
</g>
<g>
	<path class="st6" d="M136,233.4c-6.5-13.3-16.8-22-30.6-26.9c-3.1-1.1-6.3-2.2-9.6-2.8c-0.4-0.1-0.9-0.2-1.3-0.4
		c-0.6-0.2,0.2-0.1-0.4-0.2c-0.5-0.1-0.5,0.1-0.1,0.1c10.1,3.1,18.5,8.9,26.3,15.8c1.8,1.6,3.7,3.5,3,6.4c-2.4,1.6-4.1-1.8-6.4-1
		c-5.8-2.1-10.5-6.3-16.3-8.5c-32.4-12-67.9,2-81.3,35c-2,4.9-3.8,10-4.5,15.3c-1.2,4.2,0.4,8.7-1.1,12.9c-2.1,1.9-3.1,0-3.5-1.4
		c-0.9-4.1-3.3-6-7.5-5.5c-1.8,0.2-2.2-1-2.6-2.4c-2.3-38.3,26.8-69.6,65.2-70.3c6.6-0.1,13.1-2,19.8-1.9
		c29.4,0.3,52.2,17.3,61.2,45.4c2.9,9,7.3,17.4,9.4,26.7c9.7,42.9-28.1,92.1-80.3,83c-17.3-3-33.5-9.4-48.3-19.1
		c-0.6-1-0.4-2.4-1.3-3.3c-8.1-8.2-14.3-17.6-18.5-28.4c-0.8-2-1.2-4-2.1-6.3c-0.1-0.3-0.2,0.3-0.2,0.3c1.5,2,1.4,4.6,2.6,6.7
		c1.1,3.7,3.9,6.7,4.2,10.7c-0.3,0.8-0.7,1.5-1.6,1.3c-4.7-7.3-7.7-15.1-8.2-23.9c-0.9-5.9-0.9-6,4.4-7c2.3-0.5,4.3-1.6,6.4-2.4
		c0.5-0.1,1,0,1.5,0.3c3,6.3,3.5,13.4,7.3,19.5c10,15.7,23.3,27.6,41.3,32.7c20.1,5.6,37.3-1.1,52.3-14.7c3.9-3.6,7.6-7.4,11.2-11.4
		c11.6-12.7,13.9-27.9,11.9-44.2c-0.2-2-0.7-3.9-0.3-5.9c0.3-1.1,0.7-2.1,2.1-2c3.1,2.5,1.8,6.4,2.9,9.5c0,0.9,0,1.9,0,2.8
		c0,0.7,0-0.2,0,0.5c0-0.1,0-0.1,0-0.2"/>
	<path class="st7" d="M0.2,269.7c0.1,0.1,0.3,0.3,0.4,0.3c6.8-0.2,10.7,3.3,12.4,9.6c0.6,0.7,0.7,1.3,0.1,2
		c-1.3,2.5-3.8,3.1-6.2,3.2c-4,0.2-5.6,2-4.8,5.9c-1.6-4-0.7-8.1-0.8-12.1c-1.2-0.9,4-2.3-0.2-2.8C-0.4,273.9,0.3,271.7,0.2,269.7z"
		/>
	<path class="st8" d="M1,275.8c1.3-1.5,2.7-1.4,4.7-0.4c-1.7,1.1-3.1,2.2-4.5,3.2C1.1,277.7,1.1,276.7,1,275.8z"/>
	<path class="st9" d="M139.9,255.7c-0.3,0.7-0.7,1.4-1,2.1"/>
	<path class="st10" d="M148.1,275.7c-0.3-1.1-1.7-2.1-0.4-3.5C149.3,273.3,149.5,274.4,148.1,275.7
		C148,275.7,148.1,275.7,148.1,275.7z"/>
	<path class="st8" d="M5.9,281.6c-0.7-0.1-1.5-0.3-1.3-1.1c0.3-1,1.3-1.4,2.3-1.4c0.9,0,1,0.7,0.9,1.4
		C7.6,281.5,6.7,281.5,5.9,281.6z"/>
	<path class="st11" d="M84,269.9c-2.5,2.6-6.8,2.6-7.3,5.7c-0.7,4.4-0.3,9-0.2,13.5c0,2.1,1.5,2,2.8,1.3c3.9-2.2,7.8-4.5,11.7-6.7
		c1.5-0.9,1.1-2.3,1.1-3.5c0.6-13.1,0-13.9-12.1-19.7c-1.5-0.7-2.7-1-4.1,0c-0.4,0.3-0.8,0.6-1.3,0.7c-9,3-12.7,9.1-10.9,18.5
		c0.4,1.9,0.1,4,0.1,6c0,13,0,13,12,18.7c1.7,0.8,3,0.8,4.6-0.2c7.3-4.3,14.7-8.5,22.1-12.5c1.9-1,2.4-2.4,2.3-4.4
		c-0.1-8-0.1-16,0-24c0-2.4-0.9-3.5-2.8-4.6c-7.1-3.9-14.2-7.9-21.2-12.1c-2.2-1.3-3.8-1.1-5.9,0.1c-6.9,4.1-13.8,8.1-20.8,11.8
		c-2.5,1.3-3,2.9-3,5.5c0.1,10.8,0.1,21.6,0.1,32.8c-4.2-1-6.5-2.6-6.3-7.3c0.4-9.6,0.2-19.3,0.1-29c0-2.8,0.6-4.5,3.3-5.9
		c9.1-4.9,18-10,26.9-15.2c2.2-1.3,3.7-1.2,5.8,0c8.9,5.2,17.8,10.3,26.9,15.2c2.3,1.3,3.3,2.6,3.3,5.4c-0.2,10.2-0.2,20.3,0,30.5
		c0.1,2.8-0.9,4.1-3.3,5.4c-9,4.9-18,10-26.9,15.2c-2.2,1.3-3.7,1.3-5.8,0c-5.7-3.5-13.6-5.3-16.6-10.3c-2.9-4.8-0.9-12.6-0.9-19.1
		c-0.1-4.8,0.2-9.7-0.1-14.5c-0.1-2.8,0.9-4.2,3.3-5.4c5.7-3,11.3-8.3,17.1-8.6c6.1-0.3,11.6,5.8,17.5,8.7c2.4,1.2,3.3,2.8,3.2,5.5
		c-0.3,6.3,1.7,13.6-0.9,18.7c-2.5,5.1-10.3,6.7-15.7,9.8c-6,3.5-11.8,0-11.8-7c0-3.8,0.4-7.7-0.1-11.5c-0.6-4.8,1.1-7.5,5.4-9.7
		C79.6,265.5,81.1,269.2,84,269.9z"/>
</g>
<g>
	<g>
		<path class="st6" d="M136,35.8c-6.5-13.3-16.8-22-30.6-26.9c-3.1-1.1-6.3-2.2-9.6-2.8c-0.4-0.1-0.9-0.2-1.3-0.4
			c-0.6-0.2,0.2-0.1-0.4-0.2c-0.5-0.1-0.5,0.1-0.1,0.1c10.1,3.1,18.5,8.9,26.3,15.8c1.8,1.6,3.7,3.5,3,6.4c-2.4,1.6-4.1-1.8-6.4-1
			c-5.8-2.1-10.5-6.3-16.3-8.5c-32.4-12-67.9,2-81.3,35c-2,4.9-3.8,10-4.5,15.3c-1.2,4.2,0.4,8.7-1.1,12.9c-2.1,1.9-3.1,0-3.5-1.4
			c-0.9-4.1-3.3-6-7.5-5.5c-1.8,0.2-2.2-1-2.6-2.4C-2.2,33.9,26.9,2.6,65.3,1.9c6.6-0.1,13.1-2,19.8-1.9
			c29.4,0.3,52.2,17.3,61.2,45.4c2.9,9,7.3,17.4,9.4,26.7c9.7,42.9-28.1,92.1-80.3,83c-17.3-3-33.5-9.4-48.3-19.1
			c-0.6-1-0.4-2.4-1.3-3.3c-8.1-8.2-14.3-17.6-18.5-28.4c-0.8-2-1.2-4-2.1-6.3C5.1,97.7,5,98.3,5,98.3c1.5,2,1.4,4.6,2.6,6.7
			c1.1,3.7,3.9,6.7,4.2,10.7c-0.3,0.8-0.7,1.5-1.6,1.3c-4.7-7.3-7.7-15.1-8.2-23.9c-0.9-5.9-0.9-6,4.4-7c2.3-0.5,4.3-1.6,6.4-2.4
			c0.5-0.1,1,0,1.5,0.3c3,6.3,3.5,13.4,7.3,19.5c10,15.7,23.3,27.6,41.3,32.7c20.1,5.6,37.3-1.1,52.3-14.7
			c3.9-3.6,7.6-7.4,11.2-11.4c11.6-12.7,13.9-27.9,11.9-44.2c-0.2-2-0.7-3.9-0.3-5.9c0.3-1.1,0.7-2.1,2.1-2c3.1,2.5,1.8,6.4,2.9,9.5
			c0,0.9,0,1.9,0,2.8c0,0.7,0-0.2,0,0.5c0-0.1,0-0.1,0-0.2"/>
		<path class="st7" d="M0.2,72.1c0.1,0.1,0.3,0.3,0.4,0.3C7.4,72.2,11.3,75.7,13,82c0.6,0.7,0.7,1.3,0.1,2c-1.3,2.5-3.8,3.1-6.2,3.2
			c-4,0.2-5.6,2-4.8,5.9C0.5,89.1,1.4,85,1.3,81c-1.2-0.9,4-2.3-0.2-2.8C-0.4,76.3,0.3,74.1,0.2,72.1z"/>
		<path class="st8" d="M1,78.2c1.3-1.5,2.7-1.4,4.7-0.4C4,78.9,2.6,80,1.2,81C1.1,80.1,1.1,79.1,1,78.2z"/>
		<path class="st9" d="M139.9,58.1c-0.3,0.7-0.7,1.4-1,2.1"/>
		<path class="st10" d="M148.1,78.1c-0.3-1.1-1.7-2.1-0.4-3.5C149.3,75.7,149.5,76.8,148.1,78.1C148,78.1,148.1,78.1,148.1,78.1z"/>
		<path class="st8" d="M5.9,84c-0.7-0.1-1.5-0.3-1.3-1.1c0.3-1,1.3-1.4,2.3-1.4c0.9,0,1,0.7,0.9,1.4C7.6,83.9,6.7,83.9,5.9,84z"/>
		<path class="st11" d="M84,72.3c-2.5,2.6-6.8,2.6-7.3,5.7c-0.7,4.4-0.3,9-0.2,13.5c0,2.1,1.5,2,2.8,1.3c3.9-2.2,7.8-4.5,11.7-6.7
			c1.5-0.9,1.1-2.3,1.1-3.5c0.6-13.1,0-13.9-12.1-19.7c-1.5-0.7-2.7-1-4.1,0c-0.4,0.3-0.8,0.6-1.3,0.7c-9,3-12.7,9.1-10.9,18.5
			c0.4,1.9,0.1,4,0.1,6c0,13,0,13,12,18.7c1.7,0.8,3,0.8,4.6-0.2c7.3-4.3,14.7-8.5,22.1-12.5c1.9-1,2.4-2.4,2.3-4.4
			c-0.1-8-0.1-16,0-24c0-2.4-0.9-3.5-2.8-4.6c-7.1-3.9-14.2-7.9-21.2-12.1c-2.2-1.3-3.8-1.1-5.9,0.1c-6.9,4.1-13.8,8.1-20.8,11.8
			c-2.5,1.3-3,2.9-3,5.5c0.1,10.8,0.1,21.6,0.1,32.8c-4.2-1-6.5-2.6-6.3-7.3c0.4-9.6,0.2-19.3,0.1-29c0-2.8,0.6-4.5,3.3-5.9
			c9.1-4.9,18-10,26.9-15.2c2.2-1.3,3.7-1.2,5.8,0C89.9,47,98.8,52.1,107.9,57c2.3,1.3,3.3,2.6,3.3,5.4c-0.2,10.2-0.2,20.3,0,30.5
			c0.1,2.8-0.9,4.1-3.3,5.4c-9,4.9-18,10-26.9,15.2c-2.2,1.3-3.7,1.3-5.8,0c-5.7-3.5-13.6-5.3-16.6-10.3c-2.9-4.8-0.9-12.6-0.9-19.1
			c-0.1-4.8,0.2-9.7-0.1-14.5c-0.1-2.8,0.9-4.2,3.3-5.4c5.7-3,11.3-8.3,17.1-8.6c6.1-0.3,11.6,5.8,17.5,8.7c2.4,1.2,3.3,2.8,3.2,5.5
			c-0.3,6.3,1.7,13.6-0.9,18.7c-2.5,5.1-10.3,6.7-15.7,9.8c-6,3.5-11.8,0-11.8-7c0-3.8,0.4-7.7-0.1-11.5c-0.6-4.8,1.1-7.5,5.4-9.7
			C79.6,67.9,81.1,71.6,84,72.3z"/>
	</g>
	<text transform="matrix(1 0 0 1 302.1195 72.4148)" class="st12 st13 st14">нсерные </text>
	<text transform="matrix(1 0 0 1 176.0716 113.7933)" class="st12 st13 st15">СЕ</text>
	<g>
		<text transform="matrix(1 0 0 1 306.6513 113.7929)" class="st12 st13 st14">ти</text>
	</g>
</g>
</svg>
