<?xml version="1.0" encoding="utf-8"?>
<!-- Generator: Adobe Illustrator 23.0.3, SVG Export Plug-In . SVG Version: 6.00 Build 0)  -->
<svg version="1.1" id="Слой_1" xmlns="http://www.w3.org/2000/svg" xmlns:xlink="http://www.w3.org/1999/xlink" x="0px" y="0px"
	 width="577px" height="156.2px" viewBox="0 0 577 156.2" style="enable-background:new 0 0 577 156.2;" xml:space="preserve">
<style type="text/css">
	.st0{fill:#383838;}
	.st1{font-family:'NeoSansCyr-Medium';}
	.st2{font-size:111.2546px;}
	.st3{fill:#4484D0;}
	.st4{fill:#5286C5;}
	.st5{fill:#4684CE;}
	.st6{fill:#689BD9;}
	.st7{fill:#6B9DDA;}
	.st8{fill:#E30000;}
</style>
<g>
	<text transform="matrix(1 0 0 1 183.9465 114.7958)" class="st0 st1 st2">СенСет</text>
	<g>
		<path class="st3" d="M149.9,35.8c-6.5-13.3-16.8-22-30.6-26.9c-3.1-1.1-6.3-2.2-9.6-2.8c-0.4-0.1-0.9-0.2-1.3-0.4
			c-0.6-0.2,0.2-0.1-0.4-0.2c-0.5-0.1-0.5,0.1-0.1,0.1c10.1,3.1,18.5,8.9,26.3,15.8c1.8,1.6,3.7,3.5,3,6.4c-2.4,1.6-4.1-1.8-6.4-1
			c-5.8-2.1-10.5-6.3-16.3-8.5c-32.4-12-67.9,2-81.3,35c-2,4.9-3.8,10-4.5,15.3c-1.2,4.2,0.4,8.7-1.1,12.9c-2.1,1.9-3.1,0-3.5-1.4
			c-0.9-4.1-3.3-6-7.5-5.5c-1.8,0.2-2.2-1-2.6-2.4C11.7,33.9,40.8,2.6,79.2,1.9C85.8,1.8,92.3-0.1,99,0
			c29.4,0.3,52.2,17.3,61.2,45.4c2.9,9,7.3,17.4,9.4,26.7c9.7,42.9-28.1,92.1-80.3,83c-17.3-3-33.5-9.4-48.3-19.1
			c-0.6-1-0.4-2.4-1.3-3.3c-8.1-8.2-14.3-17.6-18.5-28.4c-0.8-2-1.2-4-2.1-6.3c-0.1-0.3-0.2,0.3-0.2,0.3c1.5,2,1.4,4.6,2.6,6.7
			c1.1,3.7,3.9,6.7,4.2,10.7c-0.3,0.8-0.7,1.5-1.6,1.3c-4.7-7.3-7.7-15.1-8.2-23.9c-0.9-5.9-0.9-6,4.4-7c2.3-0.5,4.3-1.6,6.4-2.4
			c0.5-0.1,1,0,1.5,0.3c3,6.3,3.5,13.4,7.3,19.5c10,15.7,23.3,27.6,41.3,32.7c20.1,5.6,37.3-1.1,52.3-14.7
			c3.9-3.6,7.6-7.4,11.2-11.4c11.6-12.7,13.9-27.9,11.9-44.2c-0.2-2-0.7-3.9-0.3-5.9c0.3-1.1,0.7-2.1,2.1-2c3.1,2.5,1.8,6.4,2.9,9.5
			c0,0.9,0,1.9,0,2.8c0,0.7,0-0.2,0,0.5c0-0.1,0-0.1,0-0.2"/>
		<path class="st4" d="M14.1,72.1c0.1,0.1,0.3,0.3,0.4,0.3c6.8-0.2,10.7,3.3,12.4,9.6c0.6,0.7,0.7,1.3,0.1,2
			c-1.3,2.5-3.8,3.1-6.2,3.2c-4,0.2-5.6,2-4.8,5.9c-1.6-4-0.7-8.1-0.8-12.1c-1.2-0.9,4-2.3-0.2-2.8C13.5,76.3,14.2,74.1,14.1,72.1z"
			/>
		<path class="st5" d="M14.9,78.2c1.3-1.5,2.7-1.4,4.7-0.4c-1.7,1.1-3.1,2.2-4.5,3.2C15,80.1,15,79.1,14.9,78.2z"/>
		<path class="st6" d="M153.8,58.1c-0.3,0.7-0.7,1.4-1,2.1"/>
		<path class="st7" d="M162,78.1c-0.3-1.1-1.7-2.1-0.4-3.5C163.2,75.7,163.4,76.8,162,78.1C161.9,78.1,162,78.1,162,78.1z"/>
		<path class="st5" d="M19.8,84c-0.7-0.1-1.5-0.3-1.3-1.1c0.3-1,1.3-1.4,2.3-1.4c0.9,0,1,0.7,0.9,1.4C21.5,83.9,20.6,83.9,19.8,84z"
			/>
		<path class="st8" d="M97.9,72.3c-2.5,2.6-6.8,2.6-7.3,5.7c-0.7,4.4-0.3,9-0.2,13.5c0,2.1,1.5,2,2.8,1.3c3.9-2.2,7.8-4.5,11.7-6.7
			c1.5-0.9,1.1-2.3,1.1-3.5c0.6-13.1,0-13.9-12.1-19.7c-1.5-0.7-2.7-1-4.1,0c-0.4,0.3-0.8,0.6-1.3,0.7c-9,3-12.7,9.1-10.9,18.5
			c0.4,1.9,0.1,4,0.1,6c0,13,0,13,12,18.7c1.7,0.8,3,0.8,4.6-0.2c7.3-4.3,14.7-8.5,22.1-12.5c1.9-1,2.4-2.4,2.3-4.4
			c-0.1-8-0.1-16,0-24c0-2.4-0.9-3.5-2.8-4.6c-7.1-3.9-14.2-7.9-21.2-12.1c-2.2-1.3-3.8-1.1-5.9,0.1C81.9,53.2,75,57.2,68,60.9
			c-2.5,1.3-3,2.9-3,5.5c0.1,10.8,0.1,21.6,0.1,32.8c-4.2-1-6.5-2.6-6.3-7.3c0.4-9.6,0.2-19.3,0.1-29c0-2.8,0.6-4.5,3.3-5.9
			c9.1-4.9,18-10,26.9-15.2c2.2-1.3,3.7-1.2,5.8,0c8.9,5.2,17.8,10.3,26.9,15.2c2.3,1.3,3.3,2.6,3.3,5.4c-0.2,10.2-0.2,20.3,0,30.5
			c0.1,2.8-0.9,4.1-3.3,5.4c-9,4.9-18,10-26.9,15.2c-2.2,1.3-3.7,1.3-5.8,0c-5.7-3.5-13.6-5.3-16.6-10.3c-2.9-4.8-0.9-12.6-0.9-19.1
			c-0.1-4.8,0.2-9.7-0.1-14.5c-0.1-2.8,0.9-4.2,3.3-5.4c5.7-3,11.3-8.3,17.1-8.6c6.1-0.3,11.6,5.8,17.5,8.7c2.4,1.2,3.3,2.8,3.2,5.5
			c-0.3,6.3,1.7,13.6-0.9,18.7c-2.5,5.1-10.3,6.7-15.7,9.8c-6,3.5-11.8,0-11.8-7c0-3.8,0.4-7.7-0.1-11.5c-0.6-4.8,1.1-7.5,5.4-9.7
			C93.5,67.9,95,71.6,97.9,72.3z"/>
	</g>
</g>
</svg>
